<?xml version="1.0" encoding="UTF-8" standalone="no"?>
<!DOCTYPE svg PUBLIC "-//W3C//DTD SVG 1.1//EN" "http://www.w3.org/Graphics/SVG/1.1/DTD/svg11.dtd">
<svg width="100%" height="100%" viewBox="0 0 39 48" version="1.1" xmlns="http://www.w3.org/2000/svg" xmlns:xlink="http://www.w3.org/1999/xlink" xml:space="preserve" xmlns:serif="http://www.serif.com/" style="fill-rule:evenodd;clip-rule:evenodd;stroke-linejoin:round;stroke-miterlimit:2;">
    <g transform="matrix(1,0,0,1,-4.5,0)">
        <path d="M23.976,0C16.824,0 10.971,5.243 10.335,12.997C6.896,14.065 4.5,17.223 4.5,20.941C4.5,20.968 4.5,20.995 4.501,21.022C4.5,21.057 4.5,21.093 4.5,21.129C4.55,28.261 6.81,39.16 18.609,46.493C21.823,48.502 25.89,48.502 29.153,46.493C41.053,39.21 43.313,28.311 43.313,21.129C43.313,21.108 43.312,21.087 43.312,21.067C43.312,21.025 43.313,20.983 43.313,20.941C43.313,17.337 41.006,14.195 37.67,13.062C37.061,5.271 31.147,0 23.976,0ZM12.235,38.469C14.309,33.999 18.837,30.898 24.089,30.898C29.24,30.898 33.694,33.88 35.819,38.211C33.93,40.612 31.44,42.895 28.174,44.894L28.17,44.897C25.505,46.537 22.204,46.529 19.603,44.903L19.599,44.901C16.488,42.967 14.084,40.774 12.235,38.469ZM31.735,12.164C26.574,11.7 21.383,11.695 16.221,12.152C17.144,8.564 20.255,5.914 23.976,5.914C27.702,5.914 30.815,8.57 31.735,12.164ZM30.619,22.359C30.619,25.966 27.695,28.889 24.089,28.889C20.483,28.889 17.559,25.966 17.559,22.359C17.559,18.753 20.483,15.83 24.089,15.83C27.695,15.83 30.619,18.753 30.619,22.359Z" style="fill:rgb(96,96,96);"/>
    </g>
</svg>
